<?xml version="1.0" encoding="UTF-8"?>
<svg version="1.1" xmlns="http://www.w3.org/2000/svg" width="311" height="311">
<path d="M0 0 C101.64 0 203.28 0 308 0 C308 68 308 68 296.6953125 86.015625 C292.46645819 89.86427895 288.5137858 93.35823116 284.01135254 96.77441406 C280.7650446 99.31381549 277.72820808 102.08633532 274.66015625 104.8359375 C257.5174367 120 257.5174367 120 254 120 C254 97.89 254 75.78 254 53 C187.67 53 121.34 53 53 53 C53 119.33 53 185.66 53 254 C75.11 254 97.22 254 120 254 C118.20334803 257.59330394 116.90031577 259.3482328 114.13623047 262.10668945 C112.94391312 263.30362175 112.94391312 263.30362175 111.72750854 264.5247345 C110.8661026 265.37895493 110.00469666 266.23317535 109.1171875 267.11328125 C108.22895294 268.00105759 107.34071838 268.88883392 106.42556763 269.80351257 C104.54319196 271.68286635 102.65904597 273.56020483 100.77148438 275.43432617 C98.37275778 277.81617385 95.98055441 280.20443896 93.5906353 282.59512043 C91.28977514 284.89564 88.98466371 287.19188681 86.6796875 289.48828125 C85.83042694 290.33642899 84.98116638 291.18457672 84.10617065 292.0584259 C79.69785971 296.43217716 75.22053218 300.66094028 70.50735474 304.70549011 C69.64787884 305.44360438 68.80109659 306.19890341 68 307 C45.56 307 23.12 307 0 307 C0 205.69 0 104.38 0 0 Z " fill="#ED4133" transform="translate(1,2)"/>
<path d="M0 0 C0.33 23.43 0.66 46.86 1 71 C17.37044148 54.55034048 17.37044148 54.55034048 33.72998047 38.08984375 C36.89477539 34.91601562 36.89477539 34.91601562 38.37625122 33.43286133 C39.41300643 32.39302906 40.44777527 31.35121405 41.48098755 30.30786133 C43.04375619 28.73052135 44.61265512 27.15953059 46.18310547 25.58984375 C47.06690887 24.70159912 47.95071228 23.81335449 48.86129761 22.89819336 C51 21 51 21 53 21 C53 75.45 53 129.9 53 186 C-1.45 186 -55.9 186 -112 186 C-110.06373493 182.12746986 -108.39326594 180.15036926 -105.36669922 177.13964844 C-104.89067324 176.66338139 -104.41464725 176.18711433 -103.92419624 175.69641495 C-102.38897947 174.16268565 -100.8470259 172.63593897 -99.3046875 171.109375 C-98.35314376 170.16077345 -97.40205062 169.21171967 -96.45141602 168.26220703 C-92.93139962 164.75265762 -89.40267283 161.25185335 -85.875 157.75 C-77.99625 149.9125 -70.1175 142.075 -62 134 C-85.76 133.67 -109.52 133.34 -134 133 C-131.99714965 128.9942993 -130.14202748 126.89293485 -127.00296021 123.75572205 C-126.48954602 123.23989345 -125.97613184 122.72406485 -125.44715965 122.19260508 C-123.72617014 120.46598144 -121.99812719 118.74659677 -120.27001953 117.02709961 C-119.03442854 115.79043566 -117.79927063 114.55333886 -116.56451416 113.31584167 C-113.20953821 109.95601622 -109.84834146 106.60247797 -106.48587275 103.2501533 C-102.96905921 99.74212017 -99.4575156 96.2288192 -95.94528198 92.71620178 C-90.04553885 86.8173954 -84.14193445 80.92247599 -78.23583984 75.0300293 C-71.40699153 68.21690295 -64.58338016 61.39856783 -57.76275551 54.57720941 C-51.20312712 48.01697062 -44.64064472 41.459595 -38.07656479 34.9038105 C-35.28241831 32.11319495 -32.48912289 29.32173158 -29.69647598 26.5296154 C-26.40747938 23.24162348 -23.11594347 19.9561945 -19.82242584 16.6727314 C-18.61382227 15.46704824 -17.4060621 14.26051896 -16.19920731 13.05308533 C-14.55210836 11.4054954 -12.90196752 9.76101352 -11.25100708 8.11729431 C-10.32812456 7.19608764 -9.40524204 6.27488096 -8.45439339 5.32575893 C-2.83407422 0 -2.83407422 0 0 0 Z M-5.67825317 79.54272461 C-6.19829926 80.06479492 -6.71834534 80.58686523 -7.25415039 81.12475586 C-8.07366936 81.94164635 -8.07366936 81.94164635 -8.90974426 82.77503967 C-10.72491542 84.58578979 -12.5363812 86.40019698 -14.34765625 88.21484375 C-15.6016142 89.46812873 -16.85572062 90.72126519 -18.10997009 91.97425842 C-20.74201887 94.60482988 -23.37224252 97.23720952 -26.0012207 99.87084961 C-29.37982066 103.25514687 -32.76288884 106.63493622 -36.14733219 110.01338863 C-38.73896203 112.60141376 -41.32821614 115.19180513 -43.91674614 117.78293037 C-45.16361396 119.03046771 -46.41123173 120.27725595 -47.65959358 121.52329826 C-49.40056811 123.26174775 -51.13832898 125.00334564 -52.87524414 126.74584961 C-53.39731445 127.26589569 -53.91938477 127.78594177 -54.45727539 128.32174683 C-56.91563562 130.31904004 -56.91563562 130.31904004 -58 133 C-39.19 133 -20.38 133 -1 133 C-1 114.19 -1 95.38 -1 76 C-3.0659105 76 -4.29600943 78.16872876 -5.67825317 79.54272461 Z " fill="#EE2A33" transform="translate(256,123)"/>
<path d="M0 0 C0.33 23.43 0.66 46.86 1 71 C17.37044148 54.55034048 17.37044148 54.55034048 33.72998047 38.08984375 C36.89477539 34.91601562 36.89477539 34.91601562 38.37625122 33.43286133 C39.41300643 32.39302906 40.44777527 31.35121405 41.48098755 30.30786133 C43.04375619 28.73052135 44.61265512 27.15953059 46.18310547 25.58984375 C47.06690887 24.70159912 47.95071228 23.81335449 48.86129761 22.89819336 C51 21 51 21 53 21 C53 75.45 53 129.9 53 186 C-1.45 186 -55.9 186 -112 186 C-110.06373493 182.12746986 -108.39326594 180.15036926 -105.36669922 177.13964844 C-104.89067324 176.66338139 -104.41464725 176.18711433 -103.92419624 175.69641495 C-102.38897947 174.16268565 -100.8470259 172.63593897 -99.3046875 171.109375 C-98.35314376 170.16077345 -97.40205062 169.21171967 -96.45141602 168.26220703 C-92.93139962 164.75265762 -89.40267283 161.25185335 -85.875 157.75 C-77.99625 149.9125 -70.1175 142.075 -62 134 C-85.76 133.67 -109.52 133.34 -134 133 C-131.99714965 128.9942993 -130.14202748 126.89293485 -127.00296021 123.75572205 C-126.48954602 123.23989345 -125.97613184 122.72406485 -125.44715965 122.19260508 C-123.72617014 120.46598144 -121.99812719 118.74659677 -120.27001953 117.02709961 C-119.03442854 115.79043566 -117.79927063 114.55333886 -116.56451416 113.31584167 C-113.20953821 109.95601622 -109.84834146 106.60247797 -106.48587275 103.2501533 C-102.96905921 99.74212017 -99.4575156 96.2288192 -95.94528198 92.71620178 C-90.04553885 86.8173954 -84.14193445 80.92247599 -78.23583984 75.0300293 C-71.40699153 68.21690295 -64.58338016 61.39856783 -57.76275551 54.57720941 C-51.20312712 48.01697062 -44.64064472 41.459595 -38.07656479 34.9038105 C-35.28241831 32.11319495 -32.48912289 29.32173158 -29.69647598 26.5296154 C-26.40747938 23.24162348 -23.11594347 19.9561945 -19.82242584 16.6727314 C-18.61382227 15.46704824 -17.4060621 14.26051896 -16.19920731 13.05308533 C-14.55210836 11.4054954 -12.90196752 9.76101352 -11.25100708 8.11729431 C-10.32812456 7.19608764 -9.40524204 6.27488096 -8.45439339 5.32575893 C-2.83407422 0 -2.83407422 0 0 0 Z M25.4375 44.75 C24.83314999 45.3043787 24.22879997 45.8587574 23.60613632 46.42993546 C9.00681583 59.95467634 -2.37649222 72.26105086 -3.49658775 92.83602524 C-3.66330482 97.63713303 -3.4991536 102.39570086 -3.1875 107.1875 C-3.1439098 107.8613121 -3.1003196 108.53512421 -3.05540848 109.22935486 C-2.47558304 117.55637872 -1.45766864 125.78265307 0 134 C-0.64065399 133.88896942 -1.28130798 133.77793884 -1.94137573 133.6635437 C-10.21802677 132.2995108 -18.50659727 131.40506338 -26.875 130.875 C-27.87975121 130.81101957 -27.87975121 130.81101957 -28.90480042 130.74574661 C-46.24507072 129.77339775 -59.90095877 131.82561158 -73.3111763 143.46806335 C-78.73916825 148.36582762 -83.81422717 153.54707944 -88.75 158.9375 C-89.56979465 159.83128483 -89.56979465 159.83128483 -90.40615082 160.74312592 C-102.42682116 172.12241337 -102.42682116 172.12241337 -110 185 C-56.54 185 -3.08 185 52 185 C52 131.54 52 78.08 52 23 C45.0783822 23 30.67655369 39.93611832 25.4375 44.75 Z M-5.67825317 79.54272461 C-6.19829926 80.06479492 -6.71834534 80.58686523 -7.25415039 81.12475586 C-8.07366936 81.94164635 -8.07366936 81.94164635 -8.90974426 82.77503967 C-10.72491542 84.58578979 -12.5363812 86.40019698 -14.34765625 88.21484375 C-15.6016142 89.46812873 -16.85572062 90.72126519 -18.10997009 91.97425842 C-20.74201887 94.60482988 -23.37224252 97.23720952 -26.0012207 99.87084961 C-29.37982066 103.25514687 -32.76288884 106.63493622 -36.14733219 110.01338863 C-38.73896203 112.60141376 -41.32821614 115.19180513 -43.91674614 117.78293037 C-45.16361396 119.03046771 -46.41123173 120.27725595 -47.65959358 121.52329826 C-49.40056811 123.26174775 -51.13832898 125.00334564 -52.87524414 126.74584961 C-53.39731445 127.26589569 -53.91938477 127.78594177 -54.45727539 128.32174683 C-56.91563562 130.31904004 -56.91563562 130.31904004 -58 133 C-39.19 133 -20.38 133 -1 133 C-1 114.19 -1 95.38 -1 76 C-3.0659105 76 -4.29600943 78.16872876 -5.67825317 79.54272461 Z " fill="#E93E3F" transform="translate(256,123)"/>
</svg>
